<svg xmlns="http://www.w3.org/2000/svg" xmlns:xlink="http://www.w3.org/1999/xlink" width="150" zoomAndPan="magnify" viewBox="0 0 112.5 60" height="80" preserveAspectRatio="xMidYMid meet" version="1.0"><defs><g/><clipPath id="eb79ebc7cd"><path d="M 0 4.449219 L 112 4.449219 L 112 23 L 0 23 Z M 0 4.449219 " clip-rule="nonzero"/></clipPath><clipPath id="8f72dfb895"><path d="M 0 37 L 112 37 L 112 55.226562 L 0 55.226562 Z M 0 37 " clip-rule="nonzero"/></clipPath></defs><g clip-path="url(#eb79ebc7cd)"><path fill="#322d2b" d="M 1.042969 22.511719 L 1.042969 5.226562 L 110.960938 5.226562 L 110.960938 22.511719 L 111.992188 22.511719 L 111.992188 4.449219 L 0.0078125 4.449219 L 0.0078125 22.511719 L 1.042969 22.511719 " fill-opacity="1" fill-rule="nonzero"/></g><g clip-path="url(#8f72dfb895)"><path fill="#322d2b" d="M 110.960938 37.480469 L 110.960938 54.765625 L 1.042969 54.765625 L 1.042969 37.480469 L 0.0078125 37.480469 L 0.0078125 55.539062 L 111.992188 55.539062 L 111.992188 37.480469 L 110.960938 37.480469 " fill-opacity="1" fill-rule="nonzero"/></g><g fill="#000000" fill-opacity="1"><g transform="translate(26.497752, 24.899531)"><g><path d="M 11.421875 -0.15625 L 11.546875 -0.15625 L 11.546875 0 L 7.953125 0 L 7.953125 -0.15625 L 8.109375 -0.15625 C 8.328125 -0.15625 8.492188 -0.226562 8.609375 -0.375 C 8.722656 -0.519531 8.78125 -0.65625 8.78125 -0.78125 C 8.78125 -0.90625 8.753906 -1.035156 8.703125 -1.171875 L 7.6875 -3.875 L 3.375 -3.875 L 2.3125 -1.15625 C 2.269531 -1.019531 2.25 -0.890625 2.25 -0.765625 C 2.25 -0.648438 2.300781 -0.519531 2.40625 -0.375 C 2.519531 -0.226562 2.691406 -0.15625 2.921875 -0.15625 L 3.0625 -0.15625 L 3.0625 0 L -0.140625 0 L -0.140625 -0.15625 L 0 -0.15625 C 0.269531 -0.15625 0.53125 -0.238281 0.78125 -0.40625 C 1.039062 -0.582031 1.25 -0.835938 1.40625 -1.171875 L 5.015625 -9.75 C 5.398438 -10.613281 5.59375 -11.160156 5.59375 -11.390625 L 5.75 -11.390625 L 10.015625 -1.171875 C 10.160156 -0.835938 10.359375 -0.582031 10.609375 -0.40625 C 10.867188 -0.238281 11.140625 -0.15625 11.421875 -0.15625 Z M 3.578125 -4.359375 L 7.5 -4.359375 L 5.578125 -9.46875 Z M 3.578125 -4.359375 "/></g></g></g><g fill="#000000" fill-opacity="1"><g transform="translate(37.850672, 24.899531)"><g><path d="M 1.171875 -0.15625 C 1.441406 -0.15625 1.675781 -0.253906 1.875 -0.453125 C 2.070312 -0.648438 2.175781 -0.890625 2.1875 -1.171875 L 2.1875 -10 C 2.175781 -10.28125 2.070312 -10.515625 1.875 -10.703125 C 1.675781 -10.898438 1.441406 -11 1.171875 -11 L 0.953125 -11 L 0.953125 -11.171875 L 4.453125 -11.171875 L 4.453125 -11 L 4.25 -11 C 3.863281 -11 3.566406 -10.835938 3.359375 -10.515625 C 3.265625 -10.359375 3.21875 -10.1875 3.21875 -10 L 3.21875 -0.5 L 5.5 -0.5 C 6.289062 -0.5 6.890625 -0.671875 7.296875 -1.015625 C 7.710938 -1.367188 8.0625 -1.890625 8.34375 -2.578125 L 8.5 -2.578125 L 7.578125 0 L 0.953125 0 L 0.953125 -0.15625 Z M 1.171875 -0.15625 "/></g></g></g><g fill="#000000" fill-opacity="1"><g transform="translate(46.811829, 24.899531)"><g><path d="M 1.171875 -0.15625 C 1.441406 -0.15625 1.675781 -0.253906 1.875 -0.453125 C 2.070312 -0.648438 2.175781 -0.890625 2.1875 -1.171875 L 2.1875 -10.09375 C 2.15625 -10.351562 2.039062 -10.566406 1.84375 -10.734375 C 1.65625 -10.910156 1.429688 -11 1.171875 -11 L 0.96875 -11 L 0.953125 -11.171875 L 5.625 -11.171875 C 5.957031 -11.171875 6.316406 -11.203125 6.703125 -11.265625 C 7.097656 -11.328125 7.375 -11.390625 7.53125 -11.453125 L 7.53125 -9.4375 L 7.375 -9.4375 L 7.375 -9.734375 C 7.375 -9.984375 7.285156 -10.195312 7.109375 -10.375 C 6.929688 -10.5625 6.722656 -10.660156 6.484375 -10.671875 L 3.21875 -10.671875 L 3.21875 -5.75 L 5.921875 -5.75 C 6.128906 -5.757812 6.304688 -5.835938 6.453125 -5.984375 C 6.609375 -6.128906 6.6875 -6.316406 6.6875 -6.546875 L 6.6875 -6.765625 L 6.84375 -6.765625 L 6.84375 -4.25 L 6.6875 -4.25 L 6.6875 -4.484375 C 6.6875 -4.691406 6.613281 -4.867188 6.46875 -5.015625 C 6.320312 -5.171875 6.144531 -5.253906 5.9375 -5.265625 L 3.21875 -5.265625 L 3.21875 -0.5 L 5.5 -0.5 C 6.289062 -0.5 6.890625 -0.671875 7.296875 -1.015625 C 7.710938 -1.367188 8.0625 -1.890625 8.34375 -2.578125 L 8.5 -2.578125 L 7.578125 0 L 0.953125 0 L 0.953125 -0.15625 Z M 1.171875 -0.15625 "/></g></g></g><g fill="#000000" fill-opacity="1"><g transform="translate(56.01216, 24.899531)"><g><path d="M 10.53125 -0.15625 L 10.75 -0.15625 L 10.75 0 L 6.859375 0 L 6.859375 -0.15625 L 7.046875 -0.15625 C 7.285156 -0.15625 7.46875 -0.265625 7.59375 -0.484375 C 7.664062 -0.597656 7.703125 -0.707031 7.703125 -0.8125 C 7.703125 -0.914062 7.675781 -1.019531 7.625 -1.125 L 5.171875 -5.015625 L 2.71875 -1.15625 C 2.644531 -1.039062 2.609375 -0.925781 2.609375 -0.8125 C 2.609375 -0.707031 2.648438 -0.601562 2.734375 -0.5 C 2.867188 -0.269531 3.046875 -0.15625 3.265625 -0.15625 L 3.484375 -0.15625 L 3.484375 0 L -0.140625 0 L -0.140625 -0.15625 L 0.078125 -0.15625 C 0.398438 -0.15625 0.703125 -0.242188 0.984375 -0.421875 C 1.273438 -0.609375 1.515625 -0.832031 1.703125 -1.09375 L 4.75 -5.640625 L 1.96875 -10.0625 C 1.707031 -10.4375 1.378906 -10.707031 0.984375 -10.875 C 0.773438 -10.957031 0.5625 -11 0.34375 -11 L 0.125 -11 L 0.125 -11.171875 L 3.984375 -11.171875 L 3.984375 -11 L 3.796875 -11 C 3.578125 -11 3.394531 -10.894531 3.25 -10.6875 C 3.175781 -10.570312 3.140625 -10.457031 3.140625 -10.34375 C 3.140625 -10.238281 3.164062 -10.132812 3.21875 -10.03125 L 5.421875 -6.59375 L 7.59375 -10.015625 C 7.65625 -10.117188 7.6875 -10.226562 7.6875 -10.34375 C 7.6875 -10.457031 7.65625 -10.566406 7.59375 -10.671875 C 7.46875 -10.890625 7.285156 -11 7.046875 -11 L 6.859375 -11 L 6.859375 -11.171875 L 10.453125 -11.171875 L 10.453125 -11 L 10.21875 -11 C 9.90625 -11 9.609375 -10.910156 9.328125 -10.734375 C 9.046875 -10.554688 8.804688 -10.332031 8.609375 -10.0625 L 5.828125 -5.953125 L 8.921875 -1.078125 C 9.171875 -0.722656 9.492188 -0.457031 9.890625 -0.28125 C 10.097656 -0.195312 10.3125 -0.15625 10.53125 -0.15625 Z M 10.53125 -0.15625 "/></g></g></g><g fill="#000000" fill-opacity="1"><g transform="translate(66.567828, 24.899531)"><g><path d="M 11.421875 -0.15625 L 11.546875 -0.15625 L 11.546875 0 L 7.953125 0 L 7.953125 -0.15625 L 8.109375 -0.15625 C 8.328125 -0.15625 8.492188 -0.226562 8.609375 -0.375 C 8.722656 -0.519531 8.78125 -0.65625 8.78125 -0.78125 C 8.78125 -0.90625 8.753906 -1.035156 8.703125 -1.171875 L 7.6875 -3.875 L 3.375 -3.875 L 2.3125 -1.15625 C 2.269531 -1.019531 2.25 -0.890625 2.25 -0.765625 C 2.25 -0.648438 2.300781 -0.519531 2.40625 -0.375 C 2.519531 -0.226562 2.691406 -0.15625 2.921875 -0.15625 L 3.0625 -0.15625 L 3.0625 0 L -0.140625 0 L -0.140625 -0.15625 L 0 -0.15625 C 0.269531 -0.15625 0.53125 -0.238281 0.78125 -0.40625 C 1.039062 -0.582031 1.25 -0.835938 1.40625 -1.171875 L 5.015625 -9.75 C 5.398438 -10.613281 5.59375 -11.160156 5.59375 -11.390625 L 5.75 -11.390625 L 10.015625 -1.171875 C 10.160156 -0.835938 10.359375 -0.582031 10.609375 -0.40625 C 10.867188 -0.238281 11.140625 -0.15625 11.421875 -0.15625 Z M 3.578125 -4.359375 L 7.5 -4.359375 L 5.578125 -9.46875 Z M 3.578125 -4.359375 "/></g></g></g><g fill="#000000" fill-opacity="1"><g transform="translate(77.920748, 24.899531)"><g><path d="M 0.96875 -0.65625 C 0.9375 -0.800781 0.921875 -1.085938 0.921875 -1.515625 C 0.921875 -1.941406 1.003906 -2.394531 1.171875 -2.875 L 1.3125 -2.875 C 1.300781 -2.757812 1.296875 -2.640625 1.296875 -2.515625 C 1.296875 -1.867188 1.488281 -1.328125 1.875 -0.890625 C 2.269531 -0.460938 2.796875 -0.25 3.453125 -0.25 C 4.117188 -0.25 4.664062 -0.453125 5.09375 -0.859375 C 5.53125 -1.265625 5.75 -1.769531 5.75 -2.375 C 5.75 -2.988281 5.539062 -3.488281 5.125 -3.875 L 2.0625 -6.71875 C 1.488281 -7.25 1.203125 -7.890625 1.203125 -8.640625 C 1.203125 -9.398438 1.453125 -10.046875 1.953125 -10.578125 C 2.460938 -11.117188 3.144531 -11.390625 4 -11.390625 C 4.40625 -11.390625 4.863281 -11.335938 5.375 -11.234375 L 6 -11.234375 L 6 -9.265625 L 5.859375 -9.265625 C 5.859375 -9.765625 5.679688 -10.160156 5.328125 -10.453125 C 4.984375 -10.753906 4.539062 -10.90625 4 -10.90625 C 3.457031 -10.90625 3.003906 -10.722656 2.640625 -10.359375 C 2.273438 -10.003906 2.09375 -9.554688 2.09375 -9.015625 C 2.09375 -8.472656 2.304688 -8.003906 2.734375 -7.609375 L 5.875 -4.703125 C 6.40625 -4.210938 6.671875 -3.539062 6.671875 -2.6875 C 6.671875 -1.84375 6.398438 -1.144531 5.859375 -0.59375 C 5.316406 -0.0507812 4.59375 0.21875 3.6875 0.21875 C 3.21875 0.21875 2.71875 0.144531 2.1875 0 C 1.664062 -0.132812 1.257812 -0.351562 0.96875 -0.65625 Z M 0.96875 -0.65625 "/></g></g></g><g fill="#000000" fill-opacity="1"><g transform="translate(18.943892, 43.493647)"><g><path d="M 6.359375 -11.171875 C 8.066406 -11.171875 9.445312 -10.65625 10.5 -9.625 C 11.5625 -8.601562 12.09375 -7.253906 12.09375 -5.578125 C 12.09375 -3.910156 11.5625 -2.5625 10.5 -1.53125 C 9.445312 -0.507812 8.066406 0 6.359375 0 L 0.953125 0 L 0.953125 -0.15625 L 1.171875 -0.15625 C 1.441406 -0.15625 1.675781 -0.253906 1.875 -0.453125 C 2.070312 -0.648438 2.175781 -0.890625 2.1875 -1.171875 L 2.1875 -10.09375 C 2.1875 -10.351562 2.082031 -10.566406 1.875 -10.734375 C 1.664062 -10.910156 1.429688 -11 1.171875 -11 L 0.96875 -11 L 0.953125 -11.171875 Z M 3.21875 -10.6875 L 3.21875 -0.484375 L 6.359375 -0.484375 C 7.253906 -0.484375 8.046875 -0.691406 8.734375 -1.109375 C 9.421875 -1.535156 9.953125 -2.132812 10.328125 -2.90625 C 10.703125 -3.675781 10.890625 -4.566406 10.890625 -5.578125 C 10.890625 -7.109375 10.472656 -8.34375 9.640625 -9.28125 C 8.804688 -10.21875 7.710938 -10.6875 6.359375 -10.6875 Z M 3.21875 -10.6875 "/></g></g></g><g fill="#000000" fill-opacity="1"><g transform="translate(31.811602, 43.493647)"><g><path d="M 1.171875 -0.15625 C 1.441406 -0.15625 1.675781 -0.253906 1.875 -0.453125 C 2.070312 -0.648438 2.175781 -0.890625 2.1875 -1.171875 L 2.1875 -10.015625 C 2.175781 -10.296875 2.070312 -10.53125 1.875 -10.71875 C 1.675781 -10.90625 1.441406 -11 1.171875 -11 L 0.953125 -11 L 0.953125 -11.171875 L 4.453125 -11.171875 L 4.453125 -11 L 4.25 -11 C 3.96875 -11 3.726562 -10.90625 3.53125 -10.71875 C 3.332031 -10.53125 3.226562 -10.296875 3.21875 -10.015625 L 3.21875 -1.171875 C 3.21875 -0.890625 3.316406 -0.648438 3.515625 -0.453125 C 3.722656 -0.253906 3.96875 -0.15625 4.25 -0.15625 L 4.453125 -0.15625 L 4.453125 0 L 0.953125 0 L 0.953125 -0.15625 Z M 1.171875 -0.15625 "/></g></g></g><g fill="#000000" fill-opacity="1"><g transform="translate(37.20105, 43.493647)"><g><path d="M 6.6875 0.21875 C 4.976562 0.207031 3.59375 -0.328125 2.53125 -1.390625 C 1.476562 -2.453125 0.953125 -3.847656 0.953125 -5.578125 C 0.953125 -7.316406 1.476562 -8.71875 2.53125 -9.78125 C 3.59375 -10.851562 4.976562 -11.390625 6.6875 -11.390625 C 8.15625 -11.390625 9.445312 -11.03125 10.5625 -10.3125 L 10.875 -8.0625 L 10.734375 -8.0625 C 10.503906 -8.96875 10.035156 -9.664062 9.328125 -10.15625 C 8.617188 -10.65625 7.738281 -10.90625 6.6875 -10.90625 C 5.332031 -10.90625 4.238281 -10.414062 3.40625 -9.4375 C 2.570312 -8.457031 2.15625 -7.171875 2.15625 -5.578125 C 2.15625 -3.984375 2.570312 -2.695312 3.40625 -1.71875 C 4.238281 -0.75 5.332031 -0.257812 6.6875 -0.25 C 7.375 -0.25 8.03125 -0.367188 8.65625 -0.609375 C 9.28125 -0.859375 9.828125 -1.203125 10.296875 -1.640625 L 10.296875 -4.46875 C 10.296875 -4.695312 10.222656 -4.875 10.078125 -5 C 9.929688 -5.125 9.726562 -5.1875 9.46875 -5.1875 L 9.21875 -5.1875 L 9.21875 -5.34375 L 12.34375 -5.34375 L 12.34375 -5.1875 L 12.109375 -5.1875 C 11.835938 -5.1875 11.632812 -5.125 11.5 -5 C 11.363281 -4.875 11.300781 -4.695312 11.3125 -4.46875 L 11.3125 -1.828125 C 11.03125 -1.472656 10.695312 -1.148438 10.3125 -0.859375 C 9.9375 -0.578125 9.425781 -0.328125 8.78125 -0.109375 C 8.132812 0.109375 7.4375 0.21875 6.6875 0.21875 Z M 6.6875 0.21875 "/></g></g></g><g fill="#000000" fill-opacity="1"><g transform="translate(49.925252, 43.493647)"><g><path d="M 1.171875 -0.15625 C 1.441406 -0.15625 1.675781 -0.253906 1.875 -0.453125 C 2.070312 -0.648438 2.175781 -0.890625 2.1875 -1.171875 L 2.1875 -10.015625 C 2.175781 -10.296875 2.070312 -10.53125 1.875 -10.71875 C 1.675781 -10.90625 1.441406 -11 1.171875 -11 L 0.953125 -11 L 0.953125 -11.171875 L 4.453125 -11.171875 L 4.453125 -11 L 4.25 -11 C 3.96875 -11 3.726562 -10.90625 3.53125 -10.71875 C 3.332031 -10.53125 3.226562 -10.296875 3.21875 -10.015625 L 3.21875 -1.171875 C 3.21875 -0.890625 3.316406 -0.648438 3.515625 -0.453125 C 3.722656 -0.253906 3.96875 -0.15625 4.25 -0.15625 L 4.453125 -0.15625 L 4.453125 0 L 0.953125 0 L 0.953125 -0.15625 Z M 1.171875 -0.15625 "/></g></g></g><g fill="#000000" fill-opacity="1"><g transform="translate(55.3147, 43.493647)"><g><path d="M 9.390625 -9.75 C 9.390625 -10 9.300781 -10.21875 9.125 -10.40625 C 8.945312 -10.59375 8.734375 -10.691406 8.484375 -10.703125 L 5.453125 -10.703125 L 5.453125 -1.15625 C 5.460938 -0.875 5.566406 -0.632812 5.765625 -0.4375 C 5.960938 -0.25 6.203125 -0.15625 6.484375 -0.15625 L 6.6875 -0.15625 L 6.6875 0 L 3.1875 0 L 3.1875 -0.15625 L 3.390625 -0.15625 C 3.671875 -0.15625 3.910156 -0.25 4.109375 -0.4375 C 4.304688 -0.632812 4.410156 -0.863281 4.421875 -1.125 L 4.421875 -10.703125 L 1.390625 -10.703125 C 1.128906 -10.691406 0.910156 -10.59375 0.734375 -10.40625 C 0.566406 -10.21875 0.484375 -10 0.484375 -9.75 L 0.484375 -9.46875 L 0.3125 -9.453125 L 0.3125 -11.46875 C 0.476562 -11.40625 0.753906 -11.34375 1.140625 -11.28125 C 1.535156 -11.21875 1.898438 -11.1875 2.234375 -11.1875 L 7.625 -11.1875 C 8.144531 -11.1875 8.578125 -11.222656 8.921875 -11.296875 C 9.265625 -11.378906 9.476562 -11.4375 9.5625 -11.46875 L 9.5625 -9.453125 L 9.390625 -9.46875 Z M 9.390625 -9.75 "/></g></g></g><g fill="#000000" fill-opacity="1"><g transform="translate(65.168781, 43.493647)"><g><path d="M 11.421875 -0.15625 L 11.546875 -0.15625 L 11.546875 0 L 7.953125 0 L 7.953125 -0.15625 L 8.109375 -0.15625 C 8.328125 -0.15625 8.492188 -0.226562 8.609375 -0.375 C 8.722656 -0.519531 8.78125 -0.65625 8.78125 -0.78125 C 8.78125 -0.90625 8.753906 -1.035156 8.703125 -1.171875 L 7.6875 -3.875 L 3.375 -3.875 L 2.3125 -1.15625 C 2.269531 -1.019531 2.25 -0.890625 2.25 -0.765625 C 2.25 -0.648438 2.300781 -0.519531 2.40625 -0.375 C 2.519531 -0.226562 2.691406 -0.15625 2.921875 -0.15625 L 3.0625 -0.15625 L 3.0625 0 L -0.140625 0 L -0.140625 -0.15625 L 0 -0.15625 C 0.269531 -0.15625 0.53125 -0.238281 0.78125 -0.40625 C 1.039062 -0.582031 1.25 -0.835938 1.40625 -1.171875 L 5.015625 -9.75 C 5.398438 -10.613281 5.59375 -11.160156 5.59375 -11.390625 L 5.75 -11.390625 L 10.015625 -1.171875 C 10.160156 -0.835938 10.359375 -0.582031 10.609375 -0.40625 C 10.867188 -0.238281 11.140625 -0.15625 11.421875 -0.15625 Z M 3.578125 -4.359375 L 7.5 -4.359375 L 5.578125 -9.46875 Z M 3.578125 -4.359375 "/></g></g></g><g fill="#000000" fill-opacity="1"><g transform="translate(76.521701, 43.493647)"><g><path d="M 1.171875 -0.15625 C 1.441406 -0.15625 1.675781 -0.253906 1.875 -0.453125 C 2.070312 -0.648438 2.175781 -0.890625 2.1875 -1.171875 L 2.1875 -10 C 2.175781 -10.28125 2.070312 -10.515625 1.875 -10.703125 C 1.675781 -10.898438 1.441406 -11 1.171875 -11 L 0.953125 -11 L 0.953125 -11.171875 L 4.453125 -11.171875 L 4.453125 -11 L 4.25 -11 C 3.863281 -11 3.566406 -10.835938 3.359375 -10.515625 C 3.265625 -10.359375 3.21875 -10.1875 3.21875 -10 L 3.21875 -0.5 L 5.5 -0.5 C 6.289062 -0.5 6.890625 -0.671875 7.296875 -1.015625 C 7.710938 -1.367188 8.0625 -1.890625 8.34375 -2.578125 L 8.5 -2.578125 L 7.578125 0 L 0.953125 0 L 0.953125 -0.15625 Z M 1.171875 -0.15625 "/></g></g></g><g fill="#000000" fill-opacity="1"><g transform="translate(85.482858, 43.493647)"><g><path d="M 0.96875 -0.65625 C 0.9375 -0.800781 0.921875 -1.085938 0.921875 -1.515625 C 0.921875 -1.941406 1.003906 -2.394531 1.171875 -2.875 L 1.3125 -2.875 C 1.300781 -2.757812 1.296875 -2.640625 1.296875 -2.515625 C 1.296875 -1.867188 1.488281 -1.328125 1.875 -0.890625 C 2.269531 -0.460938 2.796875 -0.25 3.453125 -0.25 C 4.117188 -0.25 4.664062 -0.453125 5.09375 -0.859375 C 5.53125 -1.265625 5.75 -1.769531 5.75 -2.375 C 5.75 -2.988281 5.539062 -3.488281 5.125 -3.875 L 2.0625 -6.71875 C 1.488281 -7.25 1.203125 -7.890625 1.203125 -8.640625 C 1.203125 -9.398438 1.453125 -10.046875 1.953125 -10.578125 C 2.460938 -11.117188 3.144531 -11.390625 4 -11.390625 C 4.40625 -11.390625 4.863281 -11.335938 5.375 -11.234375 L 6 -11.234375 L 6 -9.265625 L 5.859375 -9.265625 C 5.859375 -9.765625 5.679688 -10.160156 5.328125 -10.453125 C 4.984375 -10.753906 4.539062 -10.90625 4 -10.90625 C 3.457031 -10.90625 3.003906 -10.722656 2.640625 -10.359375 C 2.273438 -10.003906 2.09375 -9.554688 2.09375 -9.015625 C 2.09375 -8.472656 2.304688 -8.003906 2.734375 -7.609375 L 5.875 -4.703125 C 6.40625 -4.210938 6.671875 -3.539062 6.671875 -2.6875 C 6.671875 -1.84375 6.398438 -1.144531 5.859375 -0.59375 C 5.316406 -0.0507812 4.59375 0.21875 3.6875 0.21875 C 3.21875 0.21875 2.71875 0.144531 2.1875 0 C 1.664062 -0.132812 1.257812 -0.351562 0.96875 -0.65625 Z M 0.96875 -0.65625 "/></g></g></g></svg>